<?xml version="1.0" encoding="UTF-8"?>
<svg id="Layer_1" data-name="Layer 1" xmlns="http://www.w3.org/2000/svg" xmlns:xlink="http://www.w3.org/1999/xlink" viewBox="0 0 72 72">
  <defs>
    <style>
      .cls-1 {
        fill: url(#linear-gradient-12);
      }

      .cls-1, .cls-2, .cls-3, .cls-4, .cls-5, .cls-6, .cls-7, .cls-8, .cls-9, .cls-10, .cls-11, .cls-12, .cls-13, .cls-14, .cls-15, .cls-16, .cls-17, .cls-18, .cls-19, .cls-20, .cls-21, .cls-22, .cls-23, .cls-24, .cls-25, .cls-26, .cls-27, .cls-28, .cls-29, .cls-30, .cls-31, .cls-32, .cls-33 {
        stroke-width: 0px;
      }

      .cls-2 {
        fill: #548bff;
      }

      .cls-3 {
        fill: url(#linear-gradient-17);
      }

      .cls-4 {
        fill: url(#linear-gradient);
      }

      .cls-5 {
        fill: url(#linear-gradient-6);
      }

      .cls-6 {
        fill: url(#radial-gradient-8);
      }

      .cls-7 {
        fill: url(#linear-gradient-15);
      }

      .cls-8 {
        fill: url(#radial-gradient-13);
      }

      .cls-9 {
        fill: url(#radial-gradient-12);
      }

      .cls-10 {
        fill: url(#linear-gradient-11);
      }

      .cls-11 {
        fill: url(#linear-gradient-5);
      }

      .cls-12 {
        fill: url(#linear-gradient-13);
      }

      .cls-13 {
        fill: url(#linear-gradient-16);
      }

      .cls-14 {
        fill: url(#linear-gradient-14);
      }

      .cls-15 {
        fill: url(#linear-gradient-2);
      }

      .cls-16 {
        fill: url(#linear-gradient-7);
      }

      .cls-17 {
        fill: url(#radial-gradient-2);
      }

      .cls-18 {
        fill: url(#radial-gradient-7);
      }

      .cls-19 {
        fill: url(#linear-gradient-3);
      }

      .cls-20 {
        fill: url(#radial-gradient-5);
      }

      .cls-21 {
        fill: url(#linear-gradient-9);
      }

      .cls-22 {
        fill: url(#radial-gradient);
      }

      .cls-23 {
        fill: url(#radial-gradient-14);
      }

      .cls-24 {
        fill: url(#linear-gradient-8);
      }

      .cls-25 {
        fill: url(#radial-gradient-10);
      }

      .cls-26 {
        fill: #fff;
      }

      .cls-27 {
        fill: url(#radial-gradient-6);
      }

      .cls-28 {
        fill: url(#linear-gradient-10);
      }

      .cls-29 {
        fill: url(#radial-gradient-9);
      }

      .cls-30 {
        fill: url(#radial-gradient-3);
      }

      .cls-31 {
        fill: url(#radial-gradient-11);
      }

      .cls-32 {
        fill: url(#linear-gradient-4);
      }

      .cls-33 {
        fill: url(#radial-gradient-4);
      }
    </style>
    <linearGradient id="linear-gradient" x1="8.24" y1="59.31" x2="28.52" y2="27.12" gradientUnits="userSpaceOnUse">
      <stop offset="0" stop-color="#548bff"/>
      <stop offset="1" stop-color="#99baff"/>
    </linearGradient>
    <linearGradient id="linear-gradient-2" x1="8.62" y1="59.55" x2="28.89" y2="27.35" xlink:href="#linear-gradient"/>
    <linearGradient id="linear-gradient-3" x1="13.39" y1="62.55" x2="33.66" y2="30.36" xlink:href="#linear-gradient"/>
    <linearGradient id="linear-gradient-4" x1="32.21" y1="74.41" x2="52.48" y2="42.21" xlink:href="#linear-gradient"/>
    <linearGradient id="linear-gradient-5" x1="29.37" y1="72.62" x2="49.65" y2="40.42" xlink:href="#linear-gradient"/>
    <linearGradient id="linear-gradient-6" x1="27.61" y1="71.51" x2="47.89" y2="39.31" xlink:href="#linear-gradient"/>
    <linearGradient id="linear-gradient-7" x1="56.1" y1="14.44" x2="10.73" y2="46.25" gradientUnits="userSpaceOnUse">
      <stop offset="0" stop-color="#96e6ff"/>
      <stop offset="1" stop-color="#54d6ff"/>
    </linearGradient>
    <linearGradient id="linear-gradient-8" x1="31.31" y1="40.14" x2="31.31" y2="42.22" gradientUnits="userSpaceOnUse">
      <stop offset="0" stop-color="#5dc9ff"/>
      <stop offset="1" stop-color="#1bb3ff"/>
    </linearGradient>
    <linearGradient id="linear-gradient-9" x1="41.05" y1="40.14" x2="41.05" y2="42.22" xlink:href="#linear-gradient-8"/>
    <linearGradient id="linear-gradient-10" x1="53.92" y1="16.87" x2="2.45" y2="49.33" gradientUnits="userSpaceOnUse">
      <stop offset="0" stop-color="#ebf8ff"/>
      <stop offset="1" stop-color="#a9dfff"/>
    </linearGradient>
    <linearGradient id="linear-gradient-11" x1="30.21" y1="35.25" x2="40.92" y2="25.69" gradientUnits="userSpaceOnUse">
      <stop offset="0" stop-color="#474e5d"/>
      <stop offset="1" stop-color="#5f6b80"/>
    </linearGradient>
    <linearGradient id="linear-gradient-12" x1="30.97" y1="32.17" x2="39.02" y2="26.99" gradientUnits="userSpaceOnUse">
      <stop offset="0" stop-color="#343944"/>
      <stop offset="1" stop-color="#4c5667"/>
    </linearGradient>
    <linearGradient id="linear-gradient-13" x1="31.39" y1="32.83" x2="39.44" y2="27.65" xlink:href="#linear-gradient-12"/>
    <linearGradient id="linear-gradient-14" x1="31.81" y1="33.49" x2="39.86" y2="28.31" xlink:href="#linear-gradient-12"/>
    <linearGradient id="linear-gradient-15" x1="32.27" y1="34.19" x2="40.32" y2="29.01" xlink:href="#linear-gradient-12"/>
    <radialGradient id="radial-gradient" cx="39.3" cy="15.97" fx="39.3" fy="15.97" r="13.52" gradientUnits="userSpaceOnUse">
      <stop offset="0" stop-color="#ffde6b"/>
      <stop offset="1" stop-color="#ffca10"/>
    </radialGradient>
    <radialGradient id="radial-gradient-2" cx="35.92" cy="18.09" fx="35.92" fy="18.09" r="12.75" xlink:href="#radial-gradient"/>
    <radialGradient id="radial-gradient-3" cx="35.92" cy="18.09" fx="35.92" fy="18.09" r="12.75" xlink:href="#radial-gradient"/>
    <radialGradient id="radial-gradient-4" cx="35.92" cy="18.09" fx="35.92" fy="18.09" r="12.75" xlink:href="#radial-gradient"/>
    <radialGradient id="radial-gradient-5" cx="35.92" cy="18.09" fx="35.92" fy="18.09" r="12.75" xlink:href="#radial-gradient"/>
    <radialGradient id="radial-gradient-6" cx="35.92" cy="18.09" fx="35.92" fy="18.09" r="12.75" xlink:href="#radial-gradient"/>
    <radialGradient id="radial-gradient-7" cx="35.92" cy="18.09" fx="35.92" fy="18.09" r="12.75" xlink:href="#radial-gradient"/>
    <radialGradient id="radial-gradient-8" cx="35.92" cy="18.09" fx="35.92" fy="18.09" r="12.75" xlink:href="#radial-gradient"/>
    <radialGradient id="radial-gradient-9" cx="35.92" cy="18.09" fx="35.92" fy="18.09" r="12.75" xlink:href="#radial-gradient"/>
    <radialGradient id="radial-gradient-10" cx="35.92" cy="18.09" fx="35.92" fy="18.09" r="12.75" xlink:href="#radial-gradient"/>
    <radialGradient id="radial-gradient-11" cx="35.92" cy="18.09" fx="35.92" fy="18.09" r="12.75" xlink:href="#radial-gradient"/>
    <radialGradient id="radial-gradient-12" cx="35.92" cy="18.09" fx="35.92" fy="18.09" r="12.75" xlink:href="#radial-gradient"/>
    <radialGradient id="radial-gradient-13" cx="35.92" cy="18.09" fx="35.92" fy="18.09" r="12.75" xlink:href="#radial-gradient"/>
    <radialGradient id="radial-gradient-14" cx="35.92" cy="18.09" fx="35.92" fy="18.09" r="12.75" xlink:href="#radial-gradient"/>
    <linearGradient id="linear-gradient-16" x1="15" y1="63.57" x2="35.27" y2="31.37" xlink:href="#linear-gradient"/>
    <linearGradient id="linear-gradient-17" x1="32.72" y1="74.73" x2="53" y2="42.53" xlink:href="#linear-gradient"/>
  </defs>
  <path class="cls-4" d="M16.93,41.65c.71,1.09,1.4,2.25,1.87,3.25.75,1.61,3.27,3.44,4.69,4.38-.25-.73-.94-1.93-2.67-3.81l-.08-.09s-1.89-2.14-.94-3.29c0,0,0,0,0,0-.81-2.25-2.19-6.13-2.44-6.97-.36-1.21-1.09-1.29-1.77-1.2-.68.09-.85,1.08-.58,1.98.13.44,1.03,3.12,1.92,5.76Z"/>
  <path class="cls-15" d="M20.52,41.57c.24-.1.51-.16.79-.16.58,0,1.2.22,1.85.64-.36-2.18-.76-4.63-.83-5.28-.14-1.25-.85-1.47-1.53-1.49-.68-.03-1.03.92-.92,1.84.04.37.32,2.28.64,4.45Z"/>
  <path class="cls-19" d="M27.03,45.28c-.12-1.82-.23-3.66-.23-4.19-.01-1.15-.64-1.41-1.26-1.5-.03,0-.06,0-.09,0-.57,0-.93.79-.92,1.6,0,.21.03.97.08,2,.66.55,1.49,1.27,2.42,2.1Z"/>
  <path class="cls-32" d="M51.26,45.38l-.08.09c-1.73,1.88-2.42,3.08-2.67,3.81,1.59-1.06,3.98-2.88,4.69-4.39.47-1,1.16-2.16,1.87-3.25.89-2.63,1.79-5.32,1.92-5.76.27-.9.09-1.89-.58-1.98-.68-.09-1.41,0-1.77,1.2-.25.84-1.63,4.72-2.44,6.97,0,0,0,0,0,0,.95,1.15-.92,3.27-.94,3.29Z"/>
  <path class="cls-11" d="M51.48,41.57c.32-2.17.6-4.08.64-4.45.1-.93-.24-1.87-.92-1.84-.68.03-1.39.24-1.53,1.49-.07.66-.47,3.1-.83,5.28.64-.42,1.27-.64,1.85-.64.29,0,.55.06.79.16Z"/>
  <path class="cls-5" d="M47.47,41.19c0-.81-.35-1.6-.92-1.6-.03,0-.06,0-.09,0-.62.09-1.24.35-1.26,1.5,0,.54-.12,2.38-.23,4.19.92-.83,1.76-1.55,2.42-2.1.05-1.02.08-1.79.08-2Z"/>
  <g>
    <path class="cls-2" d="M55.72,41.96c0,1.19-.96,2.16-2.15,2.16H18.44c-1.19,0-2.16-.96-2.16-2.15,0-1.19.96-2.16,2.15-2.16h11.49c.54,0,.97.44.97.97h0c0,.54.44.97.97.97h7.79c.54,0,.97-.44.97-.97,0-.54.43-.97.97-.97h11.95c1.19,0,2.15.96,2.16,2.15Z"/>
    <path class="cls-16" d="M50.61,15.95h-28.86c-2.04,0-2.91.87-2.91,1.95v21.9h11.91c.54,0,.97.43.97.97h0c0,.54.44.98.97.98h6.97c.54,0,.97-.44.97-.97h0c0-.54.44-.97.97-.97h11.91v-21.9c0-1.08-.87-1.95-2.91-1.95ZM50.29,36.44s0,.05,0,.08c0,0,0,.02,0,.03,0,.03-.02.06-.04.09,0,0,0,0,0,0-.01.02-.03.04-.04.05-.02.03-.05.05-.08.06-.02.01-.04.02-.06.03-.03,0-.07.02-.1.02h-27.52s-.07,0-.11-.02c-.02,0-.04-.02-.06-.03-.03-.02-.06-.04-.08-.06-.02-.01-.03-.03-.04-.05t0,0s-.03-.06-.04-.09c0,0,0-.02,0-.03,0-.03,0-.05,0-.08v-16.76c0-.19.16-.35.35-.35l13.23.03h.18l14.12-.03c.19,0,.35.16.35.35v16.76Z"/>
    <path class="cls-24" d="M32.69,41.75h-.82c-.54,0-.97-.44-.97-.97s-.44-.97-.97-.97h.82c.54,0,.97.43.97.97h0c0,.54.44.98.97.98Z"/>
    <path class="cls-21" d="M42.43,39.8c-.54,0-.97.44-.97.97s-.44.97-.97.97h-.82c.54,0,.97-.44.97-.97h0c0-.54.44-.97.97-.97h.82Z"/>
    <path class="cls-28" d="M51.94,18.7v18.72c0,.22-.17.39-.39.39h-30.75c-.11,0-.21-.04-.28-.12-.07-.07-.11-.17-.11-.28v-18.72c0-.22.18-.39.39-.39l13.23.03,17.51-.03c.22,0,.39.18.39.39Z"/>
    <g id="Light_Bulb" data-name="Light Bulb">
      <path class="cls-10" d="M33.28,27.89v3.52c0,1.08,1.38,1.48,2.11,1.48h0c0,.41,1.58.41,1.58,0h0c.69,0,2.11-.37,2.11-1.48v-3.52h-5.79Z"/>
      <g>
        <path class="cls-1" d="M33.9,29.36c-.11,0-.21-.08-.23-.2-.02-.13.07-.24.2-.26l4.56-.62c.13-.02.24.07.26.2.02.13-.07.24-.2.26l-4.56.62s-.02,0-.03,0Z"/>
        <path class="cls-12" d="M33.9,30.29c-.11,0-.21-.08-.23-.2-.02-.13.07-.24.2-.26l4.56-.62c.13-.02.24.07.26.2.02.13-.07.24-.2.26l-4.56.62s-.02,0-.03,0Z"/>
        <path class="cls-14" d="M33.9,31.22c-.11,0-.21-.08-.23-.2-.02-.13.07-.24.2-.26l4.56-.62c.13-.02.24.07.26.2.02.13-.07.24-.2.26l-4.56.62s-.02,0-.03,0Z"/>
        <path class="cls-7" d="M34.19,32.1c-.11,0-.21-.08-.23-.2-.02-.13.07-.24.2-.26l4.26-.58c.13-.02.24.07.26.2.02.13-.07.24-.2.26l-4.26.58s-.02,0-.03,0Z"/>
      </g>
      <g>
        <path class="cls-22" d="M42.94,18.24c0-3.75-3.05-6.78-6.8-6.76-3.72.02-6.71,3.04-6.71,6.76,0,1.99.86,3.78,2.23,5.01,1.04.94,1.64,2.27,1.64,3.67v.97h5.79v-.97c0-1.4.59-2.73,1.62-3.66,1.37-1.24,2.24-3.03,2.24-5.02Z"/>
        <path class="cls-26" d="M35.78,27.9h-.46c.04-1.66-.03-3.19-.22-4.56-.15-1.09-.37-2.08-.65-2.94-.37-.02-.73-.12-1.07-.29-.59-.3-1.05-.79-1.31-1.39-.2-.47-.38-1.16-.02-1.51.19-.19.47-.22.77-.09.33.14.67.46,1,.92.36.5.68,1.14.95,1.9.36-.02.72-.13,1.01-.3-.65-.64-.95-1.58-.84-2.42.09-.73.5-1.37,1.23-1.37s1.14.63,1.23,1.37c.1.83-.19,1.78-.85,2.42.3.17.64.27.96.3,0,0,0,0,0,0,.86-2.71,2.09-3.18,2.65-2.64.29.27.35.77.15,1.29-.23.64-.7,1.17-1.3,1.49-.36.19-.76.3-1.17.32-.23.8-.42,1.74-.56,2.79-.18,1.38-.29,2.96-.31,4.71h-.46c.02-1.77.13-3.38.31-4.77.14-1.03.32-1.95.54-2.75-.41-.05-.84-.2-1.21-.44-.37.25-.81.4-1.24.45.27.86.48,1.83.63,2.89.19,1.39.26,2.95.22,4.62ZM39.49,17.6c-.16.07-.41.24-.71.68-.28.41-.54.96-.76,1.64.28-.03.55-.12.8-.25.5-.27.89-.71,1.08-1.24.1-.28.13-.64-.04-.8-.1-.09-.24-.08-.37-.02ZM32.38,17.53c-.07.07-.15.38.12,1.01.21.5.6.91,1.09,1.16.22.11.45.18.69.22-.24-.64-.53-1.19-.83-1.61-.49-.69-.95-.89-1.07-.78ZM36.18,16.31c-.31,0-.68.25-.77.96-.09.72.18,1.55.77,2.08.59-.53.86-1.36.77-2.09-.09-.71-.45-.96-.77-.96Z"/>
      </g>
      <g>
        <path class="cls-17" d="M41.64,13.01c-.06,0-.12-.02-.16-.07-.09-.09-.09-.24,0-.33l1.71-1.71c.09-.09.24-.09.33,0,.09.09.09.24,0,.33l-1.71,1.71s-.1.07-.16.07Z"/>
        <path class="cls-30" d="M29.01,25.64c-.06,0-.12-.02-.16-.07-.09-.09-.09-.24,0-.33l1.71-1.71c.09-.09.24-.09.33,0,.09.09.09.24,0,.33l-1.71,1.71s-.1.07-.16.07Z"/>
        <path class="cls-33" d="M39.14,11.34s-.06,0-.09-.02c-.12-.05-.17-.18-.13-.3l.46-1.12c.05-.12.18-.17.3-.13.12.05.17.18.13.3l-.46,1.12c-.04.09-.12.14-.21.14Z"/>
        <path class="cls-20" d="M36.18,10.75c-.13,0-.23-.1-.23-.23v-2.41c0-.13.1-.23.23-.23s.23.1.23.23v2.41c0,.13-.1.23-.23.23Z"/>
        <path class="cls-27" d="M33.22,11.34c-.09,0-.18-.05-.21-.14l-.46-1.12c-.05-.12,0-.25.13-.3.12-.05.25,0,.3.13l.46,1.12c.05.12,0,.25-.13.3-.03.01-.06.02-.09.02Z"/>
        <path class="cls-18" d="M30.72,13.01c-.06,0-.12-.02-.16-.07l-1.71-1.71c-.09-.09-.09-.24,0-.33.09-.09.24-.09.33,0l1.71,1.71c.09.09.09.24,0,.33-.05.05-.1.07-.16.07Z"/>
        <path class="cls-6" d="M43.35,25.64c-.06,0-.12-.02-.16-.07l-1.71-1.71c-.09-.09-.09-.24,0-.33.09-.09.24-.09.33,0l1.71,1.71c.09.09.09.24,0,.33-.05.05-.1.07-.16.07Z"/>
        <path class="cls-29" d="M29.04,15.52s-.06,0-.09-.02l-1.12-.46c-.12-.05-.17-.18-.13-.3.05-.12.18-.17.3-.13l1.12.46c.12.05.17.18.13.3-.04.09-.12.14-.21.14Z"/>
        <path class="cls-25" d="M44.43,21.89s-.06,0-.09-.02l-1.12-.46c-.12-.05-.17-.18-.13-.3.05-.12.18-.17.3-.13l1.12.46c.12.05.17.18.13.3-.04.09-.12.14-.21.14Z"/>
        <path class="cls-31" d="M28.46,18.47h-2.41c-.13,0-.23-.1-.23-.23s.1-.23.23-.23h2.41c.13,0,.23.1.23.23s-.1.23-.23.23Z"/>
        <path class="cls-9" d="M46.32,18.47h-2.41c-.13,0-.23-.1-.23-.23s.1-.23.23-.23h2.41c.13,0,.23.1.23.23s-.1.23-.23.23Z"/>
        <path class="cls-8" d="M27.93,21.89c-.09,0-.18-.05-.21-.14-.05-.12,0-.25.13-.3l1.12-.46c.12-.05.25,0,.3.13.05.12,0,.25-.13.3l-1.12.46s-.06.02-.09.02Z"/>
        <path class="cls-23" d="M43.32,15.52c-.09,0-.18-.05-.21-.14-.05-.12,0-.25.13-.3l1.12-.46c.12-.05.25,0,.3.13.05.12,0,.25-.13.3l-1.12.46s-.06.02-.09.02Z"/>
      </g>
    </g>
  </g>
  <path class="cls-13" d="M27.76,46.79c-.11-.1-.22-.2-.33-.31-.18-.16-.35-.32-.52-.47-.11-.1-.22-.2-.33-.29-.16-.14-.32-.28-.47-.42-.09-.08-.19-.16-.28-.24-.23-.2-.44-.39-.65-.57-.09-.08-.18-.15-.26-.23-.21-.18-.41-.35-.59-.5-.12-.1-.22-.19-.33-.27-.42-.35-.75-.62-.94-.75,0,0,0,0,0,0,0,0,0,0,0,0-.15-.11-.3-.2-.44-.29-.05-.03-.09-.05-.14-.07-.09-.05-.19-.09-.27-.13-.05-.02-.11-.04-.16-.06-.08-.03-.15-.05-.23-.07-.05-.01-.11-.03-.16-.04-.06-.01-.11-.01-.17-.02-.06,0-.12-.02-.17-.02-.08,0-.16.01-.23.02,0,0,0,0,0,0-.08.01-.16.03-.23.06,0,0,0,0,0,0-.08.03-.15.06-.21.1-.13.07-.24.16-.33.27-.15.18-.14.46-.07.75.03.13.08.26.14.39.01.02.02.05.03.07.07.16.16.31.25.46.01.02.03.05.04.07.08.12.15.24.23.34.02.03.04.06.06.09.08.11.17.22.23.29.03.03.06.07.11.12.09.1.22.24.38.42.09.1.19.21.29.33.15.17.3.36.47.56.46.57.94,1.24,1.29,1.91.07.14.14.27.2.41.08.18.14.35.19.52.05.18.1.36.12.53.03.25,0,.49-.08.7,0,0-4.78-2.82-5.94-5.29-.1-.22-.22-.45-.34-.68-1.28-2.42-3.58-5.55-4.17-6.31-.38-.5-.93-.74-1.42-.74-.34,0-.65.11-.87.34-.55.55.67,2.65,2.15,5.44s3.75,7.1,4.65,8c.89.9,7.16,6.02,7.22,7.08.06,1.06-.91,5.85-.91,5.85h9.93s1.16-7.38-.34-10.34c-.83-1.64-3.72-4.55-6.37-6.99Z"/>
  <path class="cls-3" d="M59.7,37.43c-.49,0-1.04.24-1.42.74-.59.77-2.89,3.89-4.17,6.31-.12.23-.24.46-.34.68-1.16,2.47-5.94,5.29-5.94,5.29-.08-.21-.1-.45-.08-.7.14-1.39,1.71-3.31,2.56-4.26.15-.17.28-.32.38-.42.05-.05.08-.09.11-.12.07-.07.15-.18.23-.29.02-.03.04-.06.06-.09.08-.1.15-.22.23-.34.01-.02.03-.05.04-.07.09-.15.17-.3.25-.46.01-.02.02-.05.03-.07.06-.13.1-.27.14-.39.08-.3.08-.57-.07-.75-.09-.11-.2-.2-.33-.27-.07-.04-.14-.07-.21-.1,0,0,0,0,0,0-.07-.03-.15-.05-.23-.06,0,0,0,0,0,0-.08-.01-.15-.02-.23-.02-.05,0-.11.01-.17.02-.06,0-.11,0-.17.02-.05,0-.11.03-.16.04-.07.02-.15.04-.23.07-.05.02-.1.04-.16.06-.09.04-.18.08-.27.13-.05.02-.09.05-.14.07-.14.08-.29.17-.44.29,0,0,0,0,0,0,0,0,0,0,0,0-.19.14-.52.4-.94.75-.1.09-.21.18-.33.27-.18.15-.37.32-.58.49-.09.08-.18.16-.28.24-.21.18-.42.37-.65.57-.09.08-.18.16-.28.24-.15.14-.31.28-.47.42-.11.1-.22.19-.33.29-.17.15-.34.31-.52.47-.11.1-.22.2-.33.31-2.65,2.44-5.55,5.36-6.37,6.99-1.49,2.96-.34,10.34-.34,10.34h9.93s-.97-4.79-.91-5.85c.06-1.06,6.32-6.18,7.22-7.08.89-.9,3.17-5.21,4.65-8s2.7-4.89,2.15-5.44c-.22-.22-.54-.34-.87-.34Z"/>
</svg>